<?xml version="1.0" standalone="no"?>
<!DOCTYPE svg PUBLIC "-//W3C//DTD SVG 20010904//EN"
 "http://www.w3.org/TR/2001/REC-SVG-20010904/DTD/svg10.dtd">
<svg version="1.0" xmlns="http://www.w3.org/2000/svg"
 width="16.000000pt" height="16.000000pt" viewBox="0 0 16.000000 16.000000"
 preserveAspectRatio="xMidYMid meet">
<metadata>
Created by potrace 1.11, written by Peter Selinger 2001-2013
</metadata>
<g transform="translate(0.000000,16.000000) scale(0.001688,-0.001688)"
fill="#000000" stroke="none">
<path d="M6350 6750 c-266 -72 -461 -204 -597 -405 -100 -149 -191 -398 -211
-579 l-7 -61 -458 -3 -458 -2 3 -170 3 -170 -1896 0 -1896 0 -69 -72 c-38 -40
-170 -178 -294 -306 -124 -128 -226 -241 -228 -252 -4 -23 281 -320 307 -320
22 0 230 52 381 95 164 48 216 64 730 237 898 302 1361 391 2035 391 394 0
687 -34 1001 -117 324 -85 468 -131 689 -221 72 -29 164 -67 205 -83 41 -16
199 -91 350 -165 l275 -136 180 -30 c99 -17 349 -58 555 -91 206 -34 463 -76
570 -95 107 -18 238 -38 290 -45 194 -25 492 -114 690 -206 135 -63 335 -202
451 -314 46 -44 87 -80 90 -80 6 0 55 103 103 218 15 34 41 115 59 180 l32
117 3 650 c3 697 3 697 -49 862 -94 292 -270 541 -517 728 -106 79 -176 118
-309 170 -222 87 -425 137 -783 194 -564 90 -587 93 -880 97 -251 4 -281 2
-350 -16z"/>
<path d="M3451 4919 c-199 -18 -486 -78 -721 -148 -52 -16 -108 -32 -125 -36
-16 -3 -136 -45 -265 -92 -129 -47 -255 -92 -280 -99 -25 -7 -121 -39 -215
-72 -93 -33 -213 -71 -265 -85 -52 -14 -203 -55 -335 -91 -305 -83 -464 -122
-541 -131 -59 -6 -94 -19 -83 -29 3 -3 88 1 190 9 101 8 272 22 379 30 107 9
386 36 620 61 696 73 723 75 1131 81 518 7 706 -6 1394 -98 204 -27 429 -54
500 -59 72 -5 245 -18 385 -29 290 -23 642 -44 1034 -62 195 -9 272 -16 281
-26 19 -19 27 -16 23 8 -3 23 -69 51 -373 160 -66 23 -158 60 -205 82 -47 21
-112 49 -145 62 -33 12 -145 60 -250 107 -104 47 -221 97 -260 113 -38 15
-138 56 -222 91 -83 34 -178 70 -210 78 -32 9 -116 34 -188 56 -136 42 -298
79 -463 106 -115 19 -642 28 -791 13z"/>
<path d="M7670 3709 c-258 -27 -526 -101 -728 -202 -175 -87 -381 -170 -512
-205 -82 -21 -117 -25 -255 -26 -164 -1 -208 4 -408 51 -60 14 -111 22 -114
19 -11 -11 59 -152 115 -230 62 -86 155 -177 243 -236 73 -50 225 -115 347
-147 91 -25 114 -27 367 -31 324 -5 399 3 920 97 88 16 189 32 224 36 157 16
418 99 615 195 126 62 384 267 404 321 5 12 -27 37 -152 122 -118 80 -167 104
-304 151 -242 83 -500 112 -762 85z"/>
</g>
</svg>
